<svg width="85" height="85" viewBox="0 0 85 85" fill="none" xmlns="http://www.w3.org/2000/svg">
<g clip-path="url(#clip0_1534_457)">
<path d="M44.3374 65.7832C44.4155 68.0484 46.3712 69.8243 48.582 69.3252C60.8432 66.557 70 55.5979 70 42.5C70 27.3122 57.6878 15 42.5 15C27.3122 15 15 27.3122 15 42.5C15 55.3974 23.8787 66.2211 35.8573 69.1923C38.0848 69.7449 40.0875 67.9612 40.1666 65.6675L41 41.5L27 52.5C27 52.5 28.5 42 35.5 41H22.5C22.5 41 29 33.5 37.5 37.5L28.5 29C28.5 29 36.7464 26.0895 42.25 36.0356C47.7536 26.0895 56 29 56 29L47 37.5C55.5 33.5 62 41 62 41H49C56 42 57.5 52.5 57.5 52.5L43.5 41.5L44.3374 65.7832Z" fill="url(#paint0_linear_1534_457)"/>
<path d="M24.2793 81V72.4102H25.416V75.9375H29.8809V72.4102H31.0176V81H29.8809V76.9512H25.416V81H24.2793ZM32.3711 78.4219V77.3613H35.6113V78.4219H32.3711ZM39.0801 80.0566L39.2324 80.9883C38.9355 81.0508 38.6699 81.082 38.4355 81.082C38.0527 81.082 37.7559 81.0215 37.5449 80.9004C37.334 80.7793 37.1855 80.6211 37.0996 80.4258C37.0137 80.2266 36.9707 79.8105 36.9707 79.1777V75.5977H36.1973V74.7773H36.9707V73.2363L38.0195 72.6035V74.7773H39.0801V75.5977H38.0195V79.2363C38.0195 79.5371 38.0371 79.7305 38.0723 79.8164C38.1113 79.9023 38.1719 79.9707 38.2539 80.0215C38.3398 80.0723 38.4609 80.0977 38.6172 80.0977C38.7344 80.0977 38.8887 80.084 39.0801 80.0566ZM39.7246 77.8887C39.7246 76.7363 40.0449 75.8828 40.6855 75.3281C41.2207 74.8672 41.873 74.6367 42.6426 74.6367C43.498 74.6367 44.1973 74.918 44.7402 75.4805C45.2832 76.0391 45.5547 76.8125 45.5547 77.8008C45.5547 78.6016 45.4336 79.2324 45.1914 79.6934C44.9531 80.1504 44.6035 80.5059 44.1426 80.7598C43.6855 81.0137 43.1855 81.1406 42.6426 81.1406C41.7715 81.1406 41.0664 80.8613 40.5273 80.3027C39.9922 79.7441 39.7246 78.9395 39.7246 77.8887ZM40.8086 77.8887C40.8086 78.6855 40.9824 79.2832 41.3301 79.6816C41.6777 80.0762 42.1152 80.2734 42.6426 80.2734C43.166 80.2734 43.6016 80.0742 43.9492 79.6758C44.2969 79.2773 44.4707 78.6699 44.4707 77.8535C44.4707 77.084 44.2949 76.502 43.9434 76.1074C43.5957 75.709 43.1621 75.5098 42.6426 75.5098C42.1152 75.5098 41.6777 75.707 41.3301 76.1016C40.9824 76.4961 40.8086 77.0918 40.8086 77.8887ZM50.875 81V80.0859C50.3906 80.7891 49.7324 81.1406 48.9004 81.1406C48.5332 81.1406 48.1895 81.0703 47.8691 80.9297C47.5527 80.7891 47.3164 80.6133 47.1602 80.4023C47.0078 80.1875 46.9004 79.9258 46.8379 79.6172C46.7949 79.4102 46.7734 79.082 46.7734 78.6328V74.7773H47.8281V78.2285C47.8281 78.7793 47.8496 79.1504 47.8926 79.3418C47.959 79.6191 48.0996 79.8379 48.3145 79.998C48.5293 80.1543 48.7949 80.2324 49.1113 80.2324C49.4277 80.2324 49.7246 80.1523 50.002 79.9922C50.2793 79.8281 50.4746 79.6074 50.5879 79.3301C50.7051 79.0488 50.7637 78.6426 50.7637 78.1113V74.7773H51.8184V81H50.875ZM53.4648 81V74.7773H54.4141V75.7207C54.6562 75.2793 54.8789 74.9883 55.082 74.8477C55.2891 74.707 55.5156 74.6367 55.7617 74.6367C56.1172 74.6367 56.4785 74.75 56.8457 74.9766L56.4824 75.9551C56.2246 75.8027 55.9668 75.7266 55.709 75.7266C55.4785 75.7266 55.2715 75.7969 55.0879 75.9375C54.9043 76.0742 54.7734 76.2656 54.6953 76.5117C54.5781 76.8867 54.5195 77.2969 54.5195 77.7422V81H53.4648ZM57.0508 79.1426L58.0938 78.9785C58.1523 79.3965 58.3145 79.7168 58.5801 79.9395C58.8496 80.1621 59.2246 80.2734 59.7051 80.2734C60.1895 80.2734 60.5488 80.1758 60.7832 79.9805C61.0176 79.7812 61.1348 79.5488 61.1348 79.2832C61.1348 79.0449 61.0312 78.8574 60.8242 78.7207C60.6797 78.627 60.3203 78.5078 59.7461 78.3633C58.9727 78.168 58.4355 78 58.1348 77.8594C57.8379 77.7148 57.6113 77.5176 57.4551 77.2676C57.3027 77.0137 57.2266 76.7344 57.2266 76.4297C57.2266 76.1523 57.2891 75.8965 57.4141 75.6621C57.543 75.4238 57.7168 75.2266 57.9355 75.0703C58.0996 74.9492 58.3223 74.8477 58.6035 74.7656C58.8887 74.6797 59.1934 74.6367 59.5176 74.6367C60.0059 74.6367 60.4336 74.707 60.8008 74.8477C61.1719 74.9883 61.4453 75.1797 61.6211 75.4219C61.7969 75.6602 61.918 75.9805 61.9844 76.3828L60.9531 76.5234C60.9062 76.2031 60.7695 75.9531 60.543 75.7734C60.3203 75.5938 60.0039 75.5039 59.5938 75.5039C59.1094 75.5039 58.7637 75.584 58.5566 75.7441C58.3496 75.9043 58.2461 76.0918 58.2461 76.3066C58.2461 76.4434 58.2891 76.5664 58.375 76.6758C58.4609 76.7891 58.5957 76.8828 58.7793 76.957C58.8848 76.9961 59.1953 77.0859 59.7109 77.2266C60.457 77.4258 60.9766 77.5898 61.2695 77.7188C61.5664 77.8438 61.7988 78.0273 61.9668 78.2695C62.1348 78.5117 62.2188 78.8125 62.2188 79.1719C62.2188 79.5234 62.1152 79.8555 61.9082 80.168C61.7051 80.4766 61.4102 80.7168 61.0234 80.8887C60.6367 81.0566 60.1992 81.1406 59.7109 81.1406C58.9023 81.1406 58.2852 80.9727 57.8594 80.6367C57.4375 80.3008 57.168 79.8027 57.0508 79.1426Z" fill="white"/>
</g>
<defs>
<linearGradient id="paint0_linear_1534_457" x1="42.5" y1="15" x2="42.5" y2="69.9298" gradientUnits="userSpaceOnUse">
<stop stop-color="#FF9F26"/>
<stop offset="1" stop-color="#FF1A67"/>
</linearGradient>
<clipPath id="clip0_1534_457">
<rect width="85" height="85" fill="white"/>
</clipPath>
</defs>
</svg>
